<svg width="47" height="47" viewBox="0 0 47 47" fill="none" xmlns="http://www.w3.org/2000/svg">
<path d="M45.4639 45.329L42.3451 33.9911C44.2625 30.6612 45.2684 26.89 45.2626 23.0534C45.2856 10.9587 35.4624 1.13574 23.3887 1.13574C17.5306 1.13574 12.0291 3.40741 7.88569 7.55064C3.74227 11.6939 1.47109 17.1953 1.47109 23.0534C1.47109 35.1264 11.2931 44.9506 23.3668 44.9506C27.0278 44.9553 30.6299 44.0355 33.8351 42.2776L45.4639 45.329ZM33.3222 38.3344L32.6541 38.7357C29.8512 40.3952 26.6499 41.2724 23.3874 41.2749C13.3642 41.2749 5.18889 33.0994 5.18889 23.0763C5.18889 18.2196 7.08175 13.6317 10.5122 10.2007C13.945 6.77213 18.5334 4.85597 23.3899 4.85597C33.4362 4.85597 41.6115 13.0316 41.6115 23.0546C41.6115 26.4856 40.6535 29.8491 38.8261 32.7438L38.403 33.4356L40.2522 40.1626L33.3246 38.3356L33.3222 38.3344Z" fill="#31A71B"/>
<path d="M44.7056 44.5715L41.6983 33.6133C43.5527 30.3993 44.528 26.7588 44.5273 23.054C44.5273 11.4052 35.0376 1.91602 23.3882 1.91602C17.7303 1.91602 12.4288 4.1214 8.42001 8.10796C6.44993 10.0724 4.88892 12.4036 3.82631 14.9682C2.7637 17.5328 2.22034 20.2804 2.22731 23.054C2.22731 34.7039 11.7158 44.1931 23.3664 44.1931C26.9072 44.1931 30.3825 43.3013 33.4794 41.6093L44.7056 44.5715Z" fill="url(#paint0_linear_13524_106141)"/>
<path d="M45.4639 45.329L42.3451 33.9911C44.2625 30.6612 45.2684 26.89 45.2626 23.0534C45.2856 10.9587 35.4624 1.13574 23.3887 1.13574C17.5306 1.13574 12.0291 3.40741 7.88569 7.55064C3.74227 11.6939 1.47109 17.1953 1.47109 23.0534C1.47109 35.1264 11.2931 44.9506 23.3668 44.9506C27.0278 44.9553 30.6299 44.0355 33.8351 42.2776L45.4639 45.329ZM33.3222 38.3344L32.6541 38.7357C29.8512 40.3952 26.6499 41.2724 23.3874 41.2749C13.3642 41.2749 5.18889 33.0994 5.18889 23.0763C5.18889 18.2196 7.08175 13.6317 10.5122 10.2007C13.945 6.77213 18.5334 4.85597 23.3899 4.85597C33.4362 4.85597 41.6115 13.0316 41.6115 23.0546C41.6115 26.4856 40.6535 29.8491 38.8261 32.7438L38.403 33.4356L40.2522 40.1626L33.3246 38.3356L33.3222 38.3344Z" fill="url(#paint1_linear_13524_106141)"/>
<path d="M33.6633 16.3997C33.1477 15.7706 32.3788 15.4111 31.5647 15.4111H19.1179L19.0817 15.0965C18.9189 13.7394 17.761 12.7148 16.3861 12.7148H15.2825C14.785 12.7148 14.378 13.1193 14.378 13.6136C14.378 14.1079 14.785 14.5123 15.2825 14.5123H16.3861C16.8474 14.5123 17.2273 14.8539 17.2816 15.3032L18.5299 25.8186C18.8013 28.0835 20.728 29.7911 23.0256 29.7911H30.6601C31.1576 29.7911 31.5647 29.3867 31.5647 28.8924C31.5647 28.3981 31.1576 27.9936 30.6601 27.9936H23.0256C21.8587 27.9936 20.8546 27.2477 20.4747 26.1961H28.9957C31.1486 26.1961 33.012 24.6772 33.4281 22.5831L34.2241 18.6376C34.3869 17.8467 34.1789 17.0289 33.6633 16.3997ZM22.519 32.4874C22.519 33.476 21.7049 34.2849 20.7099 34.2849C19.7149 34.2849 18.9008 33.476 18.9008 32.4874C18.9008 31.4988 19.7149 30.6899 20.7099 30.6899C21.7049 30.6899 22.519 31.4988 22.519 32.4874ZM30.6601 32.4874C30.6601 33.476 29.846 34.2849 28.851 34.2849C27.856 34.2849 27.0419 33.476 27.0419 32.4874C27.0419 31.4988 27.856 30.6899 28.851 30.6899C29.846 30.6899 30.6601 31.4988 30.6601 32.4874ZM12.5688 18.1074C12.5688 17.613 12.9759 17.2086 13.4734 17.2086H14.8664C15.3639 17.2086 15.771 17.613 15.771 18.1074C15.771 18.6017 15.3639 19.0061 14.8664 19.0061H13.4734C12.9759 19.0061 12.5688 18.6017 12.5688 18.1074ZM12.5688 21.7024C12.5688 21.208 12.9759 20.8036 13.4734 20.8036H15.2825C15.78 20.8036 16.1871 21.208 16.1871 21.7024C16.1871 22.1967 15.78 22.6011 15.2825 22.6011H13.4734C12.9759 22.6011 12.5688 22.1967 12.5688 21.7024ZM17.0917 25.2974C17.0917 25.7917 16.6846 26.1961 16.1871 26.1961H13.4734C12.9759 26.1961 12.5688 25.7917 12.5688 25.2974C12.5688 24.8031 12.9759 24.3986 13.4734 24.3986H16.1871C16.6846 24.3986 17.0917 24.8031 17.0917 25.2974Z" fill="white"/>
<defs>
<linearGradient id="paint0_linear_13524_106141" x1="23.4707" y1="44.5691" x2="23.4707" y2="1.90758" gradientUnits="userSpaceOnUse">
<stop stop-color="#31A71B"/>
<stop offset="1" stop-color="#31A71B"/>
</linearGradient>
<linearGradient id="paint1_linear_13524_106141" x1="23.4711" y1="45.3338" x2="23.4711" y2="1.14177" gradientUnits="userSpaceOnUse">
<stop stop-color="#E9E9E9"/>
<stop offset="1" stop-color="white"/>
</linearGradient>
</defs>
</svg>
