<svg id="Logo_Onboarding_Blue_BG_" data-name="Logo Onboarding (Blue BG)" xmlns="http://www.w3.org/2000/svg" width="204.972" height="62.209" viewBox="0 0 204.972 62.209">
  <g id="Shine" transform="translate(79.781 0.68)">
    <path id="Path_89829" data-name="Path 89829" d="M351.277,27.812a11.991,11.991,0,0,1-6.464-1.616,7.884,7.884,0,0,1-3.47-4.372l5.817-3.368a4.3,4.3,0,0,0,4.286,3.028q2.313,0,2.313-1.225a1.136,1.136,0,0,0-.17-.612,1.377,1.377,0,0,0-.646-.477q-.477-.2-.833-.323t-1.242-.357q-.885-.238-1.327-.374-7.111-2.143-7.11-7.654A6.986,6.986,0,0,1,344.8,5.052,8.889,8.889,0,0,1,351,2.909a10.4,10.4,0,0,1,5.426,1.429,8.433,8.433,0,0,1,3.521,4.117l-5.647,3.3a3.4,3.4,0,0,0-3.266-2.518,2.159,2.159,0,0,0-1.344.357,1.1,1.1,0,0,0-.459.9,1.264,1.264,0,0,0,.8,1.157,19.743,19.743,0,0,0,3.079,1.055,28.343,28.343,0,0,1,2.79.97,12.518,12.518,0,0,1,2.279,1.293,5.208,5.208,0,0,1,1.786,2.143,7.393,7.393,0,0,1,.6,3.079,6.781,6.781,0,0,1-2.5,5.63,10.605,10.605,0,0,1-6.787,1.99" transform="translate(-341.343 -2.909)" fill="#f7f7f7"/>
    <path id="Path_89830" data-name="Path 89830" d="M444.175,5.238h6.8V29.052h-6.8V20.275h-5.783v8.777h-6.8V5.238h6.8v8.437h5.783Z" transform="translate(-410.496 -4.693)" fill="#f7f7f7"/>
    <rect id="Rectangle_147850" data-name="Rectangle 147850" width="6.804" height="23.814" transform="translate(43.884 0.544)" fill="#f7f7f7"/>
    <path id="Path_89831" data-name="Path 89831" d="M585.7,5.238h6.8V29.052h-5.443l-7.484-10.886V29.052h-6.8V5.238h5.443L585.7,16.124Z" transform="translate(-518.684 -4.693)" fill="#f7f7f7"/>
    <path id="Path_89832" data-name="Path 89832" d="M678.557,22.793H687.4v6.26H671.753V5.238h15.479V11.43h-8.675v2.585h7.825v6.124h-7.825Z" transform="translate(-594.529 -4.694)" fill="#f7f7f7"/>
  </g>
  <g id="Star">
    <path id="Path_89838" data-name="Path 89838" d="M21.382,118.259l-2.276,13.7a3.705,3.705,0,0,0,1.848,3.842l4.7,2.628a3.706,3.706,0,0,0,5.48-2.74l3.381-25.121a3.707,3.707,0,0,0-.631-2.612l-2.573-3.7a3.705,3.705,0,0,0-2.653-1.568L4.094,100.107a3.706,3.706,0,0,0-4.085,3.942l.356,5.137a3.706,3.706,0,0,0,3.351,3.433l14.355,1.344a3.706,3.706,0,0,1,3.31,4.3" transform="translate(0 -76.693)" fill="#fff"/>
    <path id="Path_89839" data-name="Path 89839" d="M84.646,3.734,91.969.294a3.089,3.089,0,0,1,4.3,1.995l4.415,16.43a3.089,3.089,0,0,1-1.728,3.625l-2.1.934a3.089,3.089,0,0,1-3.8-1.065L83.419,8.288a3.089,3.089,0,0,1,1.227-4.554" transform="translate(-63.501 0)" fill="#ffb81a"/>
    <path id="Path_89840" data-name="Path 89840" d="M181.167,147.76l-10.17,6.2a1.926,1.926,0,0,1-2.825-1.02L161.4,133.169a1.926,1.926,0,0,1,.8-2.254l2.739-1.723a1.926,1.926,0,0,1,2.437.32l14.2,15.293a1.926,1.926,0,0,1-.408,2.955" transform="translate(-123.597 -98.77)" fill="#ffb81a"/>
    <path id="Path_89841" data-name="Path 89841" d="M188.3,35.382l4.234,8.446a2.423,2.423,0,0,1-1.39,3.381l-18.255,6.167a2.423,2.423,0,0,1-2.86-1.061L168.663,50a2.422,2.422,0,0,1,.572-3.127l15.39-12.3a2.422,2.422,0,0,1,3.678.807" transform="translate(-128.983 -26.088)" fill="#ffb81a"/>
  </g>
  <g id="Sokoni" transform="translate(80.12 33.704)">
    <path id="Path_89842" data-name="Path 89842" d="M352.732,169.108a11.989,11.989,0,0,1-6.464-1.616,7.883,7.883,0,0,1-3.47-4.371l5.817-3.368a4.3,4.3,0,0,0,4.286,3.028q2.313,0,2.313-1.225a1.137,1.137,0,0,0-.17-.613,1.376,1.376,0,0,0-.646-.476q-.477-.2-.833-.323t-1.242-.357q-.885-.238-1.327-.374-7.111-2.144-7.11-7.654a6.987,6.987,0,0,1,2.364-5.409,8.889,8.889,0,0,1,6.209-2.143,10.4,10.4,0,0,1,5.426,1.429,8.432,8.432,0,0,1,3.521,4.117l-5.647,3.3a3.394,3.394,0,0,0-3.266-2.518,2.156,2.156,0,0,0-1.344.357,1.1,1.1,0,0,0-.459.9,1.264,1.264,0,0,0,.8,1.157A19.744,19.744,0,0,0,354.569,154a28.3,28.3,0,0,1,2.79.969,12.519,12.519,0,0,1,2.279,1.293,5.208,5.208,0,0,1,1.786,2.143,7.393,7.393,0,0,1,.6,3.079,6.782,6.782,0,0,1-2.5,5.63,10.605,10.605,0,0,1-6.787,1.99" transform="translate(-342.798 -144.205)" fill="#f7f7f7"/>
    <path id="Path_89843" data-name="Path 89843" d="M450.989,165.52a12.989,12.989,0,0,1-17.929,0,12.566,12.566,0,0,1,0-17.725,12.99,12.99,0,0,1,17.929,0,12.567,12.567,0,0,1,0,17.725m-13.132-4.729a6,6,0,1,0-1.65-4.134,5.647,5.647,0,0,0,1.65,4.134" transform="translate(-409.162 -144.206)" fill="#f7f7f7"/>
    <path id="Path_89844" data-name="Path 89844" d="M568.6,170.348h-7.552l-5.92-10.206v10.206h-6.8V146.533h6.8v9.51l5.579-9.51h7.552L561.182,158.1Z" transform="translate(-500.286 -145.989)" fill="#f7f7f7"/>
    <path id="Path_89845" data-name="Path 89845" d="M651.565,165.52a12.989,12.989,0,0,1-17.928,0,12.566,12.566,0,0,1,0-17.725,12.99,12.99,0,0,1,17.928,0,12.567,12.567,0,0,1,0,17.725m-13.132-4.729a6,6,0,1,0-1.65-4.134,5.647,5.647,0,0,0,1.65,4.134" transform="translate(-562.859 -144.206)" fill="#f7f7f7"/>
    <path id="Path_89846" data-name="Path 89846" d="M761.824,146.534h6.8v23.814h-5.443L755.7,159.462v10.886h-6.8V146.534h5.443l7.484,10.886Z" transform="translate(-653.981 -145.989)" fill="#f7f7f7"/>
    <rect id="Rectangle_147856" data-name="Rectangle 147856" width="6.804" height="23.814" transform="translate(118.048 0.544)" fill="#f7f7f7"/>
  </g>
</svg>
