<svg xmlns="http://www.w3.org/2000/svg" width="1330" height="279" fill="none" viewBox="0 0 1330 279"><path fill="#fff" d="M332.731 222.6q-22.8 0-40.5-9.6-17.4-9.6-27.3-27t-9.9-39.9q0-23.4 9.6-41.1 9.9-18 27.3-28.2 17.7-10.2 40.8-10.2 22.5 0 39.3 9.6t26.4 26.4q9.6 16.5 9.6 37.5 0 3-.3 6.9 0 3.6-.3 7.5h-123.6v-24.9h83.1q-.9-14.1-10.5-22.5-9.3-8.4-23.4-8.4-10.5 0-19.2 4.8-8.7 4.5-13.8 14.1-5.1 9.3-5.1 23.7v8.7q0 12.3 4.8 21.3 4.8 8.7 13.2 13.5 8.7 4.8 19.5 4.8 11.1 0 18.6-4.8 7.5-5.1 11.4-12.9h41.1q-4.2 14.1-14.1 25.8-9.9 11.4-24.3 18.3-14.4 6.6-32.4 6.6m93.207-3.6V70.2h34.5l3.6 24.3h1.2q7.2-13.2 19.5-20.4 12.3-7.5 30.9-7.5t31.5 8.1q12.9 7.8 19.5 23.1 6.9 15.3 6.9 37.8V219h-40.5v-79.8q0-18.6-7.5-28.5t-23.7-9.9q-10.2 0-18.3 5.1-8.1 4.8-12.6 14.1-4.5 9-4.5 22.2V219zm242.214 3.6q-21.6 0-39-9.9t-27.6-27.6q-9.9-17.7-9.9-40.5 0-23.1 10.2-40.5 10.2-17.7 27.6-27.6t38.7-9.9q21.6 0 39 9.9t27.3 27.6q10.2 17.4 10.2 40.5t-10.2 40.8q-10.2 17.4-27.6 27.3-17.1 9.9-38.7 9.9m-.3-34.2q9.9 0 17.7-4.8 8.1-4.8 12.9-14.4 4.8-9.9 4.8-24.6t-4.8-24.3q-4.8-9.9-12.9-14.7-7.8-4.8-17.1-4.8-9.6 0-17.7 4.8t-12.9 14.7q-4.8 9.6-4.8 24.3t4.8 24.6q4.8 9.6 12.6 14.4 8.1 4.8 17.4 4.8m97.671 30.6V9h69q24.6 0 40.5 8.1t23.4 21.9q7.8 13.8 7.8 31.2 0 17.1-7.5 30.9t-23.4 22.2q-15.9 8.1-40.8 8.1h-43.8V219zm25.2-108.9h43.2q24.9 0 35.7-10.8t10.8-29.1q0-19.2-10.8-29.7t-35.7-10.5h-43.2zm176.923 112.5q-17.7 0-29.7-6.3t-18-16.8q-5.7-10.5-5.7-22.8 0-15.3 7.8-25.8 8.1-10.5 22.5-15.9 14.7-5.7 34.5-5.7h40.204q0-14.7-4.5-24.3t-12.9-14.1q-8.405-4.8-20.104-4.8-14.7 0-25.5 7.5t-13.2 23.1h-25.8q1.8-16.2 10.5-27.3 9-11.1 22.8-16.8 14.1-6 31.2-6 21.302 0 35.104 7.8 14.1 7.5 20.7 21.3 6.9 13.5 6.9 31.8V219h-21l-2.4-25.5h-1.2q-4.2 7.2-9.9 12.6-5.399 5.4-12.004 9-6.6 3.6-14.4 5.4-7.5 2.1-15.9 2.1m4.5-21.3q11.4 0 20.1-4.2c5.8-3 10.704-7 14.704-12q6-7.5 9-16.8 3.3-9.6 3.3-19.5h-38.104q-14.7 0-23.7 3.6-9 3.3-12.9 9.3t-3.9 13.8 3.6 13.8q3.9 5.7 10.8 9 7.2 3 17.1 3M1085.66 279l35.4-76.8h-9.3l-59.7-132h27.3l49.8 113.7h1.2l50.4-113.7h26.1l-94.8 208.8z"/><path fill="#fff" fill-rule="evenodd" d="M0 0v50.078h182.123l52.499-44.052V0zM86.06 64.379 0 136.592V225h234.622v-49.946H33.184L165.08 64.379z" clip-rule="evenodd"/><path fill="red" fill-rule="evenodd" d="M234.623 24.695 72.477 160.753h74.963l87.183-73.155z" clip-rule="evenodd"/></svg>